<!-- SPDX-FileCopyrightText: 2026 fuddlesworth -->
<!-- SPDX-License-Identifier: GPL-3.0-or-later -->
<svg xmlns="http://www.w3.org/2000/svg" viewBox="0 0 1280 720" font-family="Inter, system-ui, sans-serif">
  <!-- Phosphor default palette: phosphor-works.github.io/palette
       background #050916 · surface #0B1730 · surface_container #070F22 · surface_container_high #101A36
       surface_variant #1E293B · on_surface #E6EDFF · on_surface_variant #94A3B8
       primary #3B82F6 · secondary #A855F7 · tertiary #22D3EE · error #F43F5E
       success #10B981 · warning #FBBF24 · info #67E8F9 -->
  <defs>
    <linearGradient id="wp" x1="0" y1="0" x2="1" y2="1">
      <stop offset="0" stop-color="#0B1730"/>
      <stop offset=".55" stop-color="#070F22"/>
      <stop offset="1" stop-color="#050916"/>
    </linearGradient>
    <filter id="blur" x="-20%" y="-20%" width="140%" height="140%">
      <feGaussianBlur stdDeviation="60"/>
    </filter>
    <symbol id="i-net" viewBox="0 0 18 18">
      <g fill="none" stroke="currentColor" stroke-width="1.6" stroke-linecap="round">
        <path d="M 2 8 A 7 7 0 0 1 16 8"/>
        <path d="M 5 11 A 4 4 0 0 1 13 11"/>
      </g>
      <circle cx="9" cy="14" r="1.4" fill="currentColor"/>
    </symbol>
    <symbol id="i-bt" viewBox="0 0 18 18">
      <path d="M 7 3 L 13 9 L 7 15 V 3 L 13 9 L 7 9" fill="none" stroke="currentColor" stroke-width="1.6" stroke-linejoin="round"/>
    </symbol>
    <symbol id="i-bat" viewBox="0 0 22 14">
      <rect x="0.8" y="0.8" width="18" height="12.4" rx="2" fill="none" stroke="currentColor" stroke-width="1.4"/>
      <rect x="19.6" y="4" width="2.4" height="6" rx="1" fill="currentColor"/>
      <rect x="2.4" y="2.4" width="11" height="9.2" rx="1" fill="#10B981"/>
    </symbol>
    <symbol id="i-vol" viewBox="0 0 20 16">
      <path d="M 2 6 H 6 L 11 2 V 14 L 6 10 H 2 Z" fill="currentColor"/>
      <path d="M 13 5 C 15 7, 15 9, 13 11" fill="none" stroke="currentColor" stroke-width="1.4" stroke-linecap="round"/>
      <path d="M 15 3 C 18 6, 18 10, 15 13" fill="none" stroke="currentColor" stroke-width="1.4" stroke-linecap="round"/>
    </symbol>
    <symbol id="i-cog" viewBox="0 0 18 18">
      <circle cx="9" cy="9" r="2.4" fill="none" stroke="currentColor" stroke-width="1.4"/>
      <g stroke="currentColor" stroke-width="1.4" stroke-linecap="round">
        <line x1="9" y1="1.5" x2="9" y2="4"/>
        <line x1="9" y1="14" x2="9" y2="16.5"/>
        <line x1="1.5" y1="9" x2="4" y2="9"/>
        <line x1="14" y1="9" x2="16.5" y2="9"/>
        <line x1="3.6" y1="3.6" x2="5.4" y2="5.4"/>
        <line x1="12.6" y1="12.6" x2="14.4" y2="14.4"/>
        <line x1="3.6" y1="14.4" x2="5.4" y2="12.6"/>
        <line x1="12.6" y1="5.4" x2="14.4" y2="3.6"/>
      </g>
    </symbol>
  </defs>

  <rect width="1280" height="720" fill="url(#wp)"/>
  <!-- Brand-gradient blurred backdrop: cyan + purple over navy -->
  <g opacity=".4" filter="url(#blur)">
    <circle cx="220" cy="540" r="200" fill="#22D3EE"/>
    <circle cx="1080" cy="180" r="220" fill="#A855F7"/>
  </g>

  <!-- Workspace card hints -->
  <g opacity=".12">
    <rect x="120" y="180" width="340" height="240" rx="14" fill="#E6EDFF"/>
    <rect x="470" y="180" width="340" height="240" rx="14" fill="#E6EDFF"/>
    <rect x="820" y="180" width="340" height="240" rx="14" fill="#E6EDFF"/>
  </g>

  <!-- ─── Top bar (clean pill, default state) ─── -->
  <g>
    <rect x="24" y="24" width="1232" height="44" rx="22" fill="#0B1730" stroke="#1E293B"/>

    <!-- LEFT: workspace pills + focused app -->
    <g transform="translate(44 38)">
      <rect x="0"  y="0" width="22" height="14" rx="7" fill="#3B82F6">
        <animate attributeName="opacity" values="1;0.75;1" dur="2.4s" repeatCount="indefinite"/>
      </rect>
      <circle cx="36"  cy="7" r="4" fill="#101A36" stroke="#1E293B"/>
      <circle cx="56"  cy="7" r="4" fill="#101A36" stroke="#1E293B"/>
      <circle cx="76"  cy="7" r="4" fill="#101A36" stroke="#1E293B"/>
      <circle cx="96"  cy="7" r="4" fill="#101A36" stroke="#1E293B"/>
      <rect x="120" y="-3" width="20" height="20" rx="5" fill="#A855F7"/>
      <text x="148" y="11" fill="#E6EDFF" font-size="12">kate · phosphor‑shell.md</text>
    </g>

    <!-- CENTER: clock -->
    <g transform="translate(640 46)" text-anchor="middle" font-variant-numeric="tabular-nums">
      <text fill="#E6EDFF" font-size="13" font-weight="600">14:32</text>
      <text x="50" fill="#94A3B8" font-size="11">Sun 24 May</text>
      <text x="-50" fill="#94A3B8" font-size="11">·</text>
    </g>

    <!-- RIGHT: media · tray · vol · net · bt · bat · CC -->
    <g transform="translate(1232 46)" text-anchor="end">
      <g transform="translate(-12 -8)" color="#E6EDFF">
        <rect x="-22" y="-4" width="22" height="22" rx="6" fill="#101A36" stroke="#1E293B"/>
        <use href="#i-cog" x="-20" y="-2" width="18" height="18"/>
      </g>
      <g transform="translate(-50 -7)" color="#E6EDFF">
        <text x="-5" y="13" fill="#E6EDFF" font-size="11" font-variant-numeric="tabular-nums">82</text>
        <use href="#i-bat" x="-32" y="2" width="22" height="14"/>
      </g>
      <g transform="translate(-94 -7)" color="#3B82F6">
        <use href="#i-bt" x="-18" y="0" width="18" height="18"/>
      </g>
      <g transform="translate(-120 -7)" color="#3B82F6">
        <use href="#i-net" x="-18" y="0" width="18" height="18"/>
      </g>
      <g transform="translate(-170 -6)" color="#E6EDFF">
        <text x="-2" y="13" fill="#E6EDFF" font-size="11" font-variant-numeric="tabular-nums">62</text>
        <use href="#i-vol" x="-28" y="0" width="20" height="16"/>
      </g>
      <g transform="translate(-216 -3)">
        <circle r="3.5" fill="#10B981"/>
        <circle cx="-12" r="3.5" fill="#FBBF24"/>
        <circle cx="-24" r="3.5" fill="#22D3EE"/>
      </g>
      <g transform="translate(-260 -10)" text-anchor="end">
        <rect x="-200" y="-2" width="200" height="22" rx="11" fill="#101A36" stroke="#1E293B"/>
        <circle cx="-188" cy="9" r="6" fill="#A855F7"/>
        <text x="-10" y="13" fill="#E6EDFF" font-size="11">Flying Lotus · Massage</text>
      </g>
    </g>
  </g>

  <!-- ─── Inset: connected-corner demo with OPEN/CLOSE animation ─── -->
  <g transform="translate(80 510)">
    <text fill="#94A3B8" font-size="10">CONNECTED‑CORNER GEOMETRY (popout opens / closes)</text>

    <!-- Mini bar always shown -->
    <g>
      <!-- The fully open shape (always drawn, but the popout half is masked by an animated rect) -->
      <path d="
        M 10 14
        H 410 A 10 10 0 0 1 420 24
        V 140 A 10 10 0 0 1 410 150
        H 290 A 10 10 0 0 1 280 140
        V 44 A 10 10 0 0 0 270 34
        H 10  A 10 10 0 0 1 0 24
        V 24  A 10 10 0 0 1 10 14
        Z" fill="#0B1730" stroke="#3B82F6" clip-path="inset(0 0 0 0)"/>
    </g>

    <!-- "Closed bar" overlay, covers popout area, opacity animates to show open/close cycle -->
    <g>
      <!-- Background-colored rect over popout area to "hide" the popout, then fade out to reveal -->
      <rect x="270" y="34" width="160" height="120" fill="url(#wp)">
        <animate attributeName="opacity"
          values="1; 1; 0; 0; 1; 1"
          keyTimes="0; 0.18; 0.32; 0.7; 0.82; 1"
          dur="6s" repeatCount="indefinite"/>
      </rect>
      <!-- And a small connecting bar segment that matches at closed-state to fill the bottom -->
      <rect x="270" y="14" width="10" height="20" fill="#0B1730">
        <animate attributeName="opacity"
          values="1; 1; 0; 0; 1; 1"
          keyTimes="0; 0.18; 0.32; 0.7; 0.82; 1"
          dur="6s" repeatCount="indefinite"/>
      </rect>
    </g>

    <!-- Mini bar widgets (always visible above the cover) -->
    <g transform="translate(14 20)">
      <rect width="14" height="8" rx="4" fill="#3B82F6"/>
      <circle cx="22" cy="4" r="2.5" fill="#101A36" stroke="#1E293B"/>
      <text x="200" y="6" text-anchor="middle" fill="#E6EDFF" font-size="9" font-variant-numeric="tabular-nums">14:32</text>
      <circle cx="395" cy="4" r="3" fill="#22D3EE"/>
    </g>

    <!-- Popout content (visible only when popout open) -->
    <g opacity="0">
      <animate attributeName="opacity"
        values="0; 0; 1; 1; 0; 0"
        keyTimes="0; 0.22; 0.36; 0.66; 0.78; 1"
        dur="6s" repeatCount="indefinite"/>
      <rect x="294" y="50" width="112" height="14" rx="7" fill="#101A36"/>
      <rect x="294" y="50" width="76"  height="14" rx="7" fill="#3B82F6"/>
      <rect x="294" y="74" width="112" height="14" rx="7" fill="#101A36"/>
      <rect x="294" y="74" width="56"  height="14" rx="7" fill="#A855F7"/>
      <rect x="294" y="98" width="112" height="14" rx="7" fill="#101A36"/>
      <rect x="294" y="98" width="92"  height="14" rx="7" fill="#22D3EE"/>
    </g>

    <!-- Inverted corner highlight, pulses -->
    <circle cx="280" cy="34" r="3" fill="none" stroke="#22D3EE" stroke-width="1.4">
      <animate attributeName="r" values="3;6;3" dur="2s" repeatCount="indefinite"/>
      <animate attributeName="opacity" values="1;0.5;1" dur="2s" repeatCount="indefinite"/>
    </circle>
    <text x="290" y="48" fill="#22D3EE" font-size="9">inverted (concave) corner</text>
    <text x="290" y="60" fill="#94A3B8" font-size="9">SVG: A r r 0 0 0, sweep=0</text>

    <text x="200" y="170" text-anchor="middle" fill="#94A3B8" font-size="9">PopoutService pushes a "socket" → BarCanvas grows downward as one painted Shape</text>
  </g>

  <!-- Annotations -->
  <g font-size="11">
    <g transform="translate(80 120)">
      <rect width="240" height="58" rx="8" fill="#070F22" stroke="#3B82F6" opacity=".95"/>
      <text x="14" y="22" font-weight="600" fill="#3B82F6">Workspaces · focused app</text>
      <text x="14" y="40" fill="#94A3B8">Active workspace = pill (pulses).</text>
      <text x="14" y="54" fill="#94A3B8">PhosphorBackend feeds the model.</text>
    </g>

    <g transform="translate(540 120)">
      <rect width="200" height="58" rx="8" fill="#070F22" stroke="#3B82F6" opacity=".95"/>
      <text x="14" y="22" font-weight="600" fill="#3B82F6">Center slot</text>
      <text x="14" y="40" fill="#94A3B8">Clock is a widget; click to open</text>
      <text x="14" y="54" fill="#94A3B8">the dashboard via center socket.</text>
    </g>

    <g transform="translate(960 120)">
      <rect width="240" height="74" rx="8" fill="#070F22" stroke="#A855F7" opacity=".95"/>
      <text x="14" y="22" font-weight="600" fill="#A855F7">Right slot widget catalog</text>
      <text x="14" y="40" fill="#94A3B8">Each chip = an IBarWidgetFactory.</text>
      <text x="14" y="54" fill="#94A3B8">Drag‑rearrangeable; plugin surface;</text>
      <text x="14" y="68" fill="#94A3B8">capability‑scoped (no shell god mode).</text>
    </g>

    <g transform="translate(560 510)">
      <rect width="280" height="80" rx="8" fill="#070F22" stroke="#22D3EE" opacity=".95"/>
      <text x="14" y="22" font-weight="600" fill="#22D3EE">PerScreen { delegate: PanelWindow }</text>
      <text x="14" y="40" fill="#94A3B8">Hotplug correctness as one binding.</text>
      <text x="14" y="54" fill="#94A3B8">Variants‑style declarative per‑monitor</text>
      <text x="14" y="68" fill="#94A3B8">surface lifecycle backed by ScreenModel.</text>
    </g>

    <g transform="translate(880 510)">
      <rect width="320" height="80" rx="8" fill="#070F22" stroke="#3B82F6" opacity=".95"/>
      <text x="14" y="22" font-weight="600" fill="#3B82F6">Services (in‑process)</text>
      <text x="14" y="40" fill="#94A3B8">phosphor‑pipewire / network /</text>
      <text x="14" y="54" fill="#94A3B8">bluetooth / etc: native C++ against</text>
      <text x="14" y="68" fill="#94A3B8">libnm, libbluez, libpipewire, DBus.</text>
    </g>
  </g>

  <text x="640" y="670" text-anchor="middle" fill="#E6EDFF" font-size="14" font-weight="600">
    Phosphor, Top Bar (default state · default theme)
  </text>
  <text x="640" y="688" text-anchor="middle" fill="#94A3B8" font-size="11">
    Inset demonstrates the connected‑corner popout opening, bar grows downward as one painted Shape
  </text>
  <text x="640" y="706" text-anchor="middle" fill="#94A3B8" font-size="9" opacity=".7">
    Theme: phosphor‑works.github.io/palette · dark · primary #3B82F6 · secondary #A855F7 · tertiary #22D3EE
  </text>
</svg>
