<!-- SPDX-FileCopyrightText: 2026 fuddlesworth -->
<!-- SPDX-License-Identifier: GPL-3.0-or-later -->
<svg xmlns="http://www.w3.org/2000/svg" viewBox="0 0 1280 720" font-family="Inter, system-ui, sans-serif">
  <defs>
    <linearGradient id="wp" x1="0" y1="0" x2="1" y2="1">
      <stop offset="0" stop-color="#0B1730"/>
      <stop offset=".55" stop-color="#070F22"/>
      <stop offset="1" stop-color="#050916"/>
    </linearGradient>
    <filter id="blur" x="-20%" y="-20%" width="140%" height="140%">
      <feGaussianBlur stdDeviation="60"/>
    </filter>
    <symbol id="i-search" viewBox="0 0 20 20">
      <circle cx="9" cy="9" r="6" fill="none" stroke="currentColor" stroke-width="1.8"/>
      <line x1="13.5" y1="13.5" x2="18" y2="18" stroke="currentColor" stroke-width="1.8" stroke-linecap="round"/>
    </symbol>
  </defs>

  <rect width="1280" height="720" fill="url(#wp)"/>
  <g opacity=".35" filter="url(#blur)">
    <circle cx="900" cy="540" r="220" fill="#3B82F6"/>
    <circle cx="280" cy="160" r="200" fill="#A855F7"/>
  </g>
  <rect width="1280" height="720" fill="#050916" opacity=".35"/>

  <g transform="translate(340 130)">
    <rect width="600" height="460" rx="24" fill="#0B1730" stroke="#1E293B"/>

    <!-- Search field -->
    <g transform="translate(20 20)" font-size="16">
      <rect width="560" height="56" rx="16" fill="#070F22" stroke="#1E293B"/>
      <g transform="translate(18 18)" color="#94A3B8">
        <use href="#i-search" width="20" height="20"/>
      </g>
      <text x="50" y="36" fill="#E6EDFF">firef</text>
      <line x1="88" y1="20" x2="88" y2="40" stroke="#3B82F6" stroke-width="2">
        <animate attributeName="opacity" values="1;0;1" dur="1s" repeatCount="indefinite"/>
      </line>
      <text x="544" y="36" text-anchor="end" fill="#94A3B8" font-size="11">⌘K</text>
    </g>

    <!-- Provider tabs -->
    <g transform="translate(20 96)" font-size="11">
      <g>
        <rect width="68" height="26" rx="13" fill="#3B82F6"/>
        <text x="34" y="17" text-anchor="middle" fill="#F0F9FF" font-weight="600">Apps</text>
      </g>
      <g transform="translate(76 0)">
        <rect width="82" height="26" rx="13" fill="#101A36" stroke="#1E293B"/>
        <text x="41" y="17" text-anchor="middle" fill="#E6EDFF">Windows</text>
      </g>
      <g transform="translate(166 0)">
        <rect width="62" height="26" rx="13" fill="#101A36" stroke="#1E293B"/>
        <text x="31" y="17" text-anchor="middle" fill="#E6EDFF">Files</text>
      </g>
      <g transform="translate(236 0)">
        <rect width="90" height="26" rx="13" fill="#101A36" stroke="#1E293B"/>
        <text x="45" y="17" text-anchor="middle" fill="#E6EDFF">Clipboard</text>
      </g>
      <g transform="translate(334 0)">
        <rect width="62" height="26" rx="13" fill="#101A36" stroke="#1E293B"/>
        <text x="31" y="17" text-anchor="middle" fill="#E6EDFF">Calc</text>
      </g>
      <g transform="translate(404 0)">
        <rect width="70" height="26" rx="13" fill="#101A36" stroke="#1E293B"/>
        <text x="35" y="17" text-anchor="middle" fill="#E6EDFF">Emoji</text>
      </g>
    </g>

    <!-- Results, selection ring animates between rows -->
    <g transform="translate(20 140)" font-size="13">
      <!-- Animated selection ring (moves between rows: 0, 68, 124, 180) -->
      <rect width="560" height="60" rx="14" fill="#101A36" stroke="#3B82F6" stroke-width="2">
        <animate attributeName="y" values="0; 0; 64; 64; 116; 116; 0"
          keyTimes="0; 0.3; 0.4; 0.65; 0.72; 0.95; 1"
          dur="7s" repeatCount="indefinite"/>
        <animate attributeName="height" values="60; 60; 48; 48; 48; 48; 60"
          keyTimes="0; 0.3; 0.4; 0.65; 0.72; 0.95; 1"
          dur="7s" repeatCount="indefinite"/>
      </rect>

      <!-- Result 1: Firefox -->
      <g>
        <rect x="14" y="14" width="32" height="32" rx="9" fill="#A855F7"/>
        <text x="58" y="30" fill="#E6EDFF" font-weight="600">Firefox</text>
        <text x="58" y="46" fill="#94A3B8" font-size="11">org.mozilla.firefox</text>
        <text x="544" y="36" text-anchor="end" fill="#94A3B8" font-size="11">↵ open</text>
      </g>
      <g transform="translate(0 68)">
        <rect x="14" y="10" width="28" height="28" rx="8" fill="#10B981"/>
        <text x="54" y="22" fill="#E6EDFF" font-size="12">Firefox Developer Edition</text>
        <text x="54" y="38" fill="#94A3B8" font-size="11">org.mozilla.firefox‑dev</text>
      </g>
      <g transform="translate(0 124)">
        <rect x="14" y="10" width="28" height="28" rx="8" fill="#3B82F6"/>
        <text x="54" y="22" fill="#E6EDFF" font-size="12">Firefox ESR</text>
        <text x="54" y="38" fill="#94A3B8" font-size="11">org.mozilla.firefox‑esr</text>
      </g>
      <g transform="translate(0 180)">
        <rect x="14" y="10" width="28" height="28" rx="8" fill="#F43F5E"/>
        <text x="54" y="22" fill="#E6EDFF" font-size="12">«firefox», shell command</text>
        <text x="54" y="38" fill="#94A3B8" font-size="11">CommandProvider · run in terminal</text>
      </g>
    </g>

    <g transform="translate(20 416)" font-size="10" fill="#94A3B8">
      <rect x="-20" y="-16" width="600" height="40" fill="#070F22"/>
      <text x="0" y="0">↑↓ navigate · ↵ launch · ⌥↵ alt action · Tab cycles providers · Esc closes</text>
      <text x="560" y="16" text-anchor="end">phosphorctl call launcher.toggle</text>
    </g>
  </g>

  <!-- Annotations -->
  <g font-size="11">
    <g transform="translate(40 200)">
      <rect width="260" height="92" rx="8" fill="#070F22" stroke="#3B82F6"/>
      <text x="14" y="22" font-weight="600" fill="#3B82F6">Three skins, one Controller</text>
      <text x="14" y="38" fill="#94A3B8">Spotlight (shown), Bar‑connected,</text>
      <text x="14" y="52" fill="#94A3B8">Fullscreen. Same LauncherContent.qml,</text>
      <text x="14" y="66" fill="#94A3B8">switched at runtime, DMS pattern.</text>
      <text x="14" y="80" fill="#94A3B8">User picks default skin in settings.</text>
    </g>

    <g transform="translate(40 320)">
      <rect width="260" height="92" rx="8" fill="#070F22" stroke="#A855F7"/>
      <text x="14" y="22" font-weight="600" fill="#A855F7">Provider plugins</text>
      <text x="14" y="38" fill="#94A3B8">Each pill is an</text>
      <text x="14" y="52" fill="#94A3B8">ILauncherProviderFactory entry.</text>
      <text x="14" y="66" fill="#94A3B8">Apps reads .desktop; Files via</text>
      <text x="14" y="80" fill="#94A3B8">native indexer; Clipboard via svc.</text>
    </g>

    <g transform="translate(980 200)">
      <rect width="260" height="76" rx="8" fill="#070F22" stroke="#22D3EE"/>
      <text x="14" y="22" font-weight="600" fill="#22D3EE">Fuzzy match (fzf‑compatible)</text>
      <text x="14" y="38" fill="#94A3B8">Port of fzf scoring; same algorithm</text>
      <text x="14" y="52" fill="#94A3B8">DMS &amp; Noctalia ship in JS. We do</text>
      <text x="14" y="66" fill="#94A3B8">it in C++ for the hot loop.</text>
    </g>

    <g transform="translate(980 304)">
      <rect width="260" height="92" rx="8" fill="#070F22" stroke="#3B82F6"/>
      <text x="14" y="22" font-weight="600" fill="#3B82F6">CLI binding</text>
      <text x="14" y="38" fill="#94A3B8">Bind to phosphorctl, not raw DBus.</text>
      <text x="14" y="52" fill="#94A3B8">Primary target is the Phosphor</text>
      <text x="14" y="66" fill="#94A3B8">compositor; guest mode optional.</text>
      <text x="14" y="80" fill="#94A3B8">Schema: phosphorctl schema launcher</text>
    </g>
  </g>

  <text x="640" y="640" text-anchor="middle" fill="#E6EDFF" font-size="14" font-weight="600">
    Phosphor, App Launcher (Spotlight skin · default theme)
  </text>
  <text x="640" y="658" text-anchor="middle" fill="#94A3B8" font-size="11">
    Selection ring animates between results · provider tabs · fzf fuzzy match
  </text>
  <text x="640" y="676" text-anchor="middle" fill="#94A3B8" font-size="9" opacity=".7">
    Theme: phosphor‑works.github.io/palette
  </text>
</svg>
