<!-- SPDX-FileCopyrightText: 2026 fuddlesworth -->
<!-- SPDX-License-Identifier: GPL-3.0-or-later -->
<svg xmlns="http://www.w3.org/2000/svg" viewBox="0 0 1280 720" font-family="Inter, system-ui, sans-serif">
  <defs>
    <linearGradient id="wp" x1="0" y1="0" x2="1" y2="1">
      <stop offset="0" stop-color="#0B1730"/>
      <stop offset=".55" stop-color="#070F22"/>
      <stop offset="1" stop-color="#050916"/>
    </linearGradient>
    <filter id="blur" x="-20%" y="-20%" width="140%" height="140%">
      <feGaussianBlur stdDeviation="60"/>
    </filter>
  </defs>

  <rect width="1280" height="720" fill="url(#wp)"/>
  <g opacity=".4" filter="url(#blur)">
    <circle cx="320" cy="200" r="200" fill="#3B82F6"/>
    <circle cx="1000" cy="540" r="220" fill="#A855F7"/>
  </g>

  <!-- ─── Connected-corner: Bar + left-side Notification Center popout ─── -->
  <path d="
    M 38 24
    H 1242 A 14 14 0 0 1 1256 38
    V 54 A 14 14 0 0 1 1242 68
    H 594 A 14 14 0 0 0 580 82
    V 626 A 14 14 0 0 1 566 640
    H 38 A 14 14 0 0 1 24 626
    V 38 A 14 14 0 0 1 38 24
    Z" fill="#0B1730" stroke="#1E293B"/>

  <!-- Bar contents -->
  <g font-size="12" fill="#E6EDFF">
    <g transform="translate(610 38)" color="#0B1730">
      <rect x="-2" y="-2" width="22" height="22" rx="6" fill="#3B82F6">
        <animate attributeName="opacity" values="1;0.8;1" dur="2.4s" repeatCount="indefinite"/>
      </rect>
      <g transform="translate(0 0)">
        <path d="M 4 12 V 8 A 5 5 0 0 1 14 8 V 12 L 16 14 H 2 Z" fill="#0B1730"/>
        <circle cx="9" cy="16" r="2" fill="#0B1730"/>
      </g>
    </g>
    <text x="660" y="50" fill="#F43F5E" font-size="11" font-weight="600">
      5 new
      <animate attributeName="opacity" values="1;0.55;1" dur="1.6s" repeatCount="indefinite"/>
    </text>
    <text x="1180" y="46" text-anchor="end" font-weight="600" font-variant-numeric="tabular-nums">14:32</text>
    <text x="1180" y="60" text-anchor="end" fill="#94A3B8" font-size="10">Sun 24 May</text>
  </g>

  <!-- ─── Notification Center contents ─── -->
  <g transform="translate(48 96)" font-size="11">
    <g>
      <text fill="#E6EDFF" font-weight="600" font-size="14">Notifications</text>
      <g transform="translate(380 -4)">
        <rect width="68" height="22" rx="11" fill="#101A36" stroke="#1E293B"/>
        <text x="34" y="15" text-anchor="middle" fill="#E6EDFF" font-size="10">DND off</text>
      </g>
      <g transform="translate(456 -4)">
        <rect width="64" height="22" rx="11" fill="#101A36" stroke="#1E293B"/>
        <text x="32" y="15" text-anchor="middle" fill="#F43F5E" font-size="10">Clear all</text>
      </g>
    </g>

    <g transform="translate(0 36)">
      <text fill="#94A3B8" font-size="10">DISCORD · 3</text>
      <g transform="translate(0 14)">
        <rect width="520" height="64" rx="14" fill="#070F22" stroke="#1E293B"/>
        <rect x="14" y="14" width="36" height="36" rx="10" fill="#3B82F6"/>
        <text x="58" y="28" fill="#E6EDFF" font-size="13" font-weight="600">nate</text>
        <text x="58" y="46" fill="#94A3B8" font-size="11">"wanna play tonight?"</text>
        <text x="506" y="22" text-anchor="end" fill="#94A3B8" font-size="10">2m</text>
      </g>
      <g transform="translate(0 86)">
        <rect width="520" height="44" rx="14" fill="#070F22" stroke="#1E293B"/>
        <text x="18" y="18" fill="#E6EDFF" font-size="12">marc, "saw your PR"</text>
        <text x="18" y="34" fill="#94A3B8" font-size="11">#phosphor‑dev · 18m</text>
      </g>
      <g transform="translate(0 138)">
        <rect width="520" height="44" rx="14" fill="#070F22" stroke="#1E293B"/>
        <text x="18" y="18" fill="#E6EDFF" font-size="12">jules, "tomorrow ok?"</text>
        <text x="18" y="34" fill="#94A3B8" font-size="11">DM · 1h</text>
      </g>
    </g>

    <g transform="translate(0 240)">
      <text fill="#94A3B8" font-size="10">SYSTEM · 2</text>
      <g transform="translate(0 14)">
        <rect width="520" height="64" rx="14" fill="#070F22" stroke="#1E293B"/>
        <rect x="14" y="14" width="36" height="36" rx="10" fill="#10B981"/>
        <text x="58" y="28" fill="#E6EDFF" font-size="13" font-weight="600">Updates available</text>
        <text x="58" y="46" fill="#94A3B8" font-size="11">14 packages · ~120 MB</text>
        <g transform="translate(380 18)">
          <rect width="124" height="28" rx="14" fill="#3B82F6"/>
          <text x="62" y="19" text-anchor="middle" fill="#F0F9FF" font-size="11" font-weight="600">Open updater</text>
        </g>
      </g>
      <g transform="translate(0 86)">
        <rect width="520" height="44" rx="14" fill="#070F22" stroke="#1E293B"/>
        <text x="18" y="18" fill="#E6EDFF" font-size="12">Battery low</text>
        <text x="18" y="34" fill="#FBBF24" font-size="11">15% remaining · plug in</text>
      </g>
    </g>

    <g transform="translate(0 400)">
      <text fill="#94A3B8" font-size="10">EARLIER TODAY · 5</text>
      <g transform="translate(0 14)" opacity=".7">
        <rect width="520" height="44" rx="14" fill="#070F22" stroke="#1E293B"/>
        <text x="18" y="18" fill="#E6EDFF" font-size="12">Calendar, "Standup" started</text>
        <text x="18" y="34" fill="#94A3B8" font-size="11">10:00 · 3h ago</text>
      </g>
      <g transform="translate(0 66)" opacity=".5">
        <rect width="520" height="44" rx="14" fill="#070F22" stroke="#1E293B"/>
        <text x="18" y="18" fill="#E6EDFF" font-size="12">Network, connected to Crow's Nest 5G</text>
      </g>
      <g transform="translate(0 118)" opacity=".4">
        <rect width="520" height="32" rx="12" fill="#070F22" stroke="#1E293B"/>
        <text x="260" y="20" text-anchor="middle" fill="#94A3B8" font-size="11">+3 older</text>
      </g>
    </g>
  </g>

  <!-- Toasts (top-right) with slide-in animations -->
  <g transform="translate(880 88)" font-size="11">
    <text fill="#94A3B8" font-size="10">TOASTS · top‑right of screen</text>

    <!-- Toast 1: slides in from right, holds, fades -->
    <g transform="translate(380 14)">
      <animateTransform attributeName="transform" type="translate"
        values="380 14; 0 14; 0 14; 380 14"
        keyTimes="0; 0.18; 0.78; 1"
        dur="6s" repeatCount="indefinite"/>
      <rect width="360" height="80" rx="18" fill="#0B1730" stroke="#1E293B"/>
      <rect x="14" y="14" width="40" height="40" rx="10" fill="#3B82F6"/>
      <text x="64" y="32" fill="#E6EDFF" font-weight="600">Discord</text>
      <text x="64" y="50" fill="#94A3B8">nate · "wanna play tonight?"</text>
      <text x="64" y="68" fill="#94A3B8">just now</text>
      <text x="344" y="24" text-anchor="end" fill="#94A3B8" font-size="11">✕</text>
    </g>

    <!-- Toast 2: slides in after toast 1 (staggered begin) -->
    <g transform="translate(380 106)">
      <animateTransform attributeName="transform" type="translate"
        values="380 106; 380 106; 0 106; 0 106; 380 106"
        keyTimes="0; 0.25; 0.4; 0.85; 1"
        dur="6s" repeatCount="indefinite"/>
      <rect width="360" height="68" rx="18" fill="#0B1730" stroke="#1E293B"/>
      <rect x="14" y="14" width="40" height="40" rx="10" fill="#A855F7"/>
      <text x="64" y="32" fill="#E6EDFF" font-weight="600">Spotify</text>
      <text x="64" y="50" fill="#94A3B8">Now playing, Mount Kimbie</text>
      <text x="344" y="24" text-anchor="end" fill="#94A3B8" font-size="11">✕</text>
    </g>
  </g>

  <!-- Inverted-corner highlight (pulses) -->
  <circle cx="580" cy="68" r="9" fill="none" stroke="#22D3EE" stroke-width="1.5">
    <animate attributeName="r" values="9;14;9" dur="2.2s" repeatCount="indefinite"/>
    <animate attributeName="opacity" values="1;0.45;1" dur="2.2s" repeatCount="indefinite"/>
  </circle>

  <g font-size="11">
    <g transform="translate(640 300)">
      <rect width="260" height="76" rx="8" fill="#070F22" stroke="#3B82F6"/>
      <text x="14" y="22" font-weight="600" fill="#3B82F6">org.freedesktop.Notifications</text>
      <text x="14" y="38" fill="#94A3B8">phosphor‑notifications</text>
      <text x="14" y="52" fill="#94A3B8">implements the daemon in‑process.</text>
      <text x="14" y="66" fill="#94A3B8">Replaces mako / dunst / swaync.</text>
    </g>
    <g transform="translate(640 400)">
      <rect width="260" height="92" rx="8" fill="#070F22" stroke="#A855F7"/>
      <text x="14" y="22" font-weight="600" fill="#A855F7">Toasts + history split</text>
      <text x="14" y="38" fill="#94A3B8">ToastHost = layer‑shell surface</text>
      <text x="14" y="52" fill="#94A3B8">per screen. NotificationCenter is</text>
      <text x="14" y="66" fill="#94A3B8">a popout (bar's left pocket).</text>
      <text x="14" y="80" fill="#94A3B8">Both read the same NotificationStore.</text>
    </g>
    <g transform="translate(640 514)">
      <rect width="260" height="60" rx="8" fill="#070F22" stroke="#22D3EE"/>
      <text x="14" y="22" font-weight="600" fill="#22D3EE">Grouped by app · rich text</text>
      <text x="14" y="38" fill="#94A3B8">markdown2html port. Actions are</text>
      <text x="14" y="52" fill="#94A3B8">first‑class Phosphor buttons, not generic.</text>
    </g>
  </g>

  <text x="640" y="690" text-anchor="middle" fill="#E6EDFF" font-size="14" font-weight="600">
    Phosphor, Notifications (popout left · live toasts top‑right · default theme)
  </text>
  <text x="640" y="708" text-anchor="middle" fill="#94A3B8" font-size="9" opacity=".7">
    Theme: phosphor‑works.github.io/palette
  </text>
</svg>
